<?xml version="1.0" encoding="UTF-8"?>
<svg id="Layer_1" data-name="Layer 1" xmlns="http://www.w3.org/2000/svg" viewBox="0 0 72 72">
  <defs>
    <style>
      .cls-1 {
        fill: #fff;
        stroke-width: 0px;
      }
    </style>
  </defs>
  <path class="cls-1" d="m69.14,38.33c.49-6.93,1.71-14.14-.76-20.63-.38-1.01-.9-2.03-1.81-2.61-.78-.5-1.74-.59-2.66-.67-7.97-.71-15.97-1.41-23.96-.91-.37.02-.75.04-1.12.05-1.41,0-2.81.01-4.22.02-.08,0-.16,0-.23,0-2.1-.05-4.19-.16-6.29-.25-5.41-.23-14.15-1.3-20.49,1.44-1.51.66-2.96,1.62-3.82,3.03-1.1,1.82-1.05,4.09-.97,6.22.34,9,.17,17.89.62,26.89.08,1.54.16,3.13.85,4.51,1.43,2.87,4.76,5.53,7.86,6.34,2.39.62,4.79,1.24,7.25,1.46,2.3.21,4.62.07,6.92-.05,10.02-.52,20.06-.69,30.1-.52,2.23.04,5.41-.33,7.57-.9,2.16-.56,3.45-2.99,4.45-4.98.97-1.95.79-4.25.66-6.42-.24-4.01-.22-8.03.06-12.04Zm-11.84-20.4c.29.32.18.83.02,1.23-1.34,3.56-4.2,5.71-7.19,7.82-2.48,1.75-4.87,3.63-7.26,5.52-2.26,1.78-4.6,4.41-7.75,4.17-1.63-.12-3.07-1.08-4.43-2-4.27-2.9-8.87-5.6-12.8-8.93-1.23-1.04-6.41-4.92-5.53-6.84.15-.33.44-.56.74-.77,2.98-2.06,6.9-1.95,10.52-1.78,5.79.28,11.58.5,17.37.68,2.9.09,5.79.16,8.69.22,2.42.05,5.44-.43,7.6.65,0,0,0,0,0,0Zm4.81,32.18c.11,1.69.27,3.51-.41,5.12-.17.39-.39.77-.72,1.03-.63.51-1.52.52-2.33.53-5.09.07-10.33.14-15.39.72-3.93.45-7.84,1-11.79,1.19-2.05.1-4.1.22-6.14.04-3.3-.29-6.66-.05-9.94-.63-1.42-.25-2.86-.81-3.77-1.93-1.31-1.6-1.18-3.79-1.27-5.73-.12-2.63-.22-5.27-.29-7.91-.14-5.2-.18-10.41-.18-15.61,0-1.07.04-2.24.7-3.08,5.73,7.61,14.02,11.66,21.32,17.39,1.13.89,2.38,1.81,3.82,1.81,1.73,0,2.12-.22,3.39-1.39,1.55-1.42,3.2-2.74,4.85-4.06,1.57-1.26,3.14-2.52,4.72-3.77,2.5-2,3.44-3.2,6.02-5.11,1.98-1.46,4.02-2.88,5.64-4.73.44-.5.84-1.04,1.2-1.62,2.12,5.5,1.05,11.6.62,17.46-.25,3.42-.27,6.85-.05,10.27Z"/>
</svg>