<?xml version="1.0" encoding="UTF-8"?>
<svg id="Layer_1" data-name="Layer 1" xmlns="http://www.w3.org/2000/svg" viewBox="0 0 72 72">
  <defs>
    <style>
      .cls-1 {
        fill: #fff;
        stroke-width: 0px;
      }
    </style>
  </defs>
  <path class="cls-1" d="m27.56,60.44c-3.86-.61-8.34,1.23-11.41-1.18-1.37-1.07-2.07-2.76-2.88-4.29-1.9-3.6-4.7-6.71-8.06-9,.78-.92,2.17-1.14,3.34-.84s2.18,1.04,3.13,1.78c2.65,2.08,5.11,4.39,7.86,6.34,1.13.81,2.39,1.58,3.78,1.62,1.86.06,3.56-1.23,4.51-2.84.96-1.61,1.24-3.42,1.61-5.22-6.74-.01-13.59-3.24-17.17-8.95-2.37-3.78-3.1-8.35-2.57-12.73.27-2.23.85-4.42,1.7-6.5s2.04-3.62,2.16-5.83c.1-1.76-.45-3.49-.59-5.25-.34-4.18,2.69-6.19,6.51-4.5,2.11.94,3.89,2.38,6.14,3.02,2.46.7,5.08.71,7.62.54,3.56-.25,7.13-.84,10.66-.35,1.56.22,3.1.64,4.68.74,4,.24,6.32-3.26,10.03-4.01,1.02-.21,2.23-.1,2.89.71.32.39.46.88.55,1.37.45,2.46-.42,4.99-.12,7.46.44,3.62,2.75,6.85,3.67,10.36s.78,7.66-.61,11.2c-2.78,7.11-8.91,10.23-15.98,11.58-.66.13-1.43.34-1.64.98-.12.39.02.8.15,1.19,2.22,6.34,3.2,13.11,2.9,19.82-.02.43-.06.89-.32,1.23-.39.51-1.11.58-1.75.6-6.32.2-12.66-.05-18.95-.74-.71-.08-1.52-.22-1.88-.83-.24-.4-.22-.9-.19-1.36.12-2.03.25-4.06.37-6.09-.05,0-.09-.02-.14-.02Z"/>
</svg>