<?xml version="1.0" encoding="UTF-8"?>
<svg id="Layer_1" data-name="Layer 1" xmlns="http://www.w3.org/2000/svg" viewBox="0 0 72 72">
  <defs>
    <style>
      .cls-1 {
        fill: #fff;
        stroke-width: 0px;
      }
    </style>
  </defs>
  <path class="cls-1" d="m68.65,20.73c-.41-6.36-1.49-13.81-7.18-16.83-2.94-1.56-6.46-1.51-9.8-1.41-3.98.11-7.95.23-11.93.34-6.49.19-12.99.37-19.43,1.13-6.14.72-13.15,2.69-15.49,8.33-.86,2.07-.94,4.35-1,6.58-.29,9.46-.52,18.96-1.29,28.35-.6,7.36,2.28,14.55,9.19,18.26,3.13,1.68,6.67,2.42,10.19,2.95,13.43,2.03,27.28,1.28,40.4-2.2,1.66-.44,3.42-.99,4.51-2.31.9-1.1,1.19-2.55,1.42-3.95,2.1-12.95,1.26-26.16.42-39.25Zm-47.08,26.08c-10.83-11.26,3.91-25.86,15.84-26.77,2.16-.17,4.38-.09,6.42.65,4.29,1.56,7.01,5.73,8.84,9.87.79,1.78,1.48,3.64,1.54,5.58.44,15.75-22.96,20.73-32.63,10.67ZM60.43,14.98c-1.49,3.33-8.56,2.28-8.47-1.51.02-1.05.7-2,1.5-2.69.43-.37.91-.7,1.45-.9,1.27-.5,2.79-.27,3.89.53,1.1.8,1.77,2.13,1.8,3.48.01.37-.03.76-.18,1.1Z"/>
</svg>