<?xml version="1.0" encoding="UTF-8"?>
<svg id="Layer_1" data-name="Layer 1" xmlns="http://www.w3.org/2000/svg" viewBox="0 0 72 72">
  <defs>
    <style>
      .cls-1 {
        fill: #fff;
        stroke-width: 0px;
      }
    </style>
  </defs>
  <path class="cls-1" d="m18.38,4.92c3.82,3.75,3.59,9.31-.49,12.66-1.29,1.06-2.79,1.96-4.45,2.2-2.26.34-4.58-.59-6.31-2.06-2.69-2.29-4.98-6.15-4.67-9.75.58-6.75,12.16-6.74,15.91-3.06Z"/>
  <path class="cls-1" d="m5.1,29.92s0-.08,0-.12c.03-.46.07-.94.33-1.32.23-.33.59-.53.95-.71,2.96-1.48,6.36-2.21,9.67-2.13.62.01,1.29.18,1.69.65.38.45.45,1.08.5,1.67.97,12.06,1.39,24.23.62,36.31-.06,1.15-.15,2.37-.84,3.29-1,1.34-2.89,1.6-4.57,1.68-1.67.07-3.35.08-5.02-.04-.93-.06-1.95.1-2.84-.23-1.08-.39-1.3-1.59-1.48-2.61-.51-2.76-.22-5.55-.03-8.32s.22-5.75.27-8.62c.12-6.5.35-13,.74-19.49Z"/>
  <path class="cls-1" d="m25.06,32.42c.19-1.9.5-3.95,1.86-5.3,1.44-1.42,3.64-1.66,5.67-1.82,1.7-.14,3.48-.26,5.06.4,1.57.66,2.85,2.36,2.4,3.99-.19-.63.53-1.14,1.13-1.43,5.65-2.64,12.29-5.29,17.9-2.55,4.68,2.29,6.92,7.61,8.22,12.62,1.19,4.58,1.91,9.28,2.16,14,.13,2.39.14,4.8.02,7.19-.11,2.25-.1,4.81-.69,7-.19.72-.56,1.41-1.14,1.88-1.18.94-3.02.84-4.46.86-1.67.02-3.41-.08-4.92-.86-3.63-1.9-4.29-6.66-4.51-10.71-.19-3.54-.39-7.08-.58-10.61-.11-2.02-.28-4.19-1.59-5.73-1.92-2.25-5.71-2.18-8.08-.39s-3.5,4.79-3.83,7.71c-.33,2.93.01,5.88-.03,8.82-.04,2.87-.46,5.73-1.23,8.5-.2.71-.44,1.46-1,1.96-.92.82-2.56.96-3.73,1.19-1.54.3-3.1.49-4.67.4-2.78-.15-3.89-1.49-4.26-4.11-.38-2.67-.17-5.37-.24-8.06-.24-8.36-.28-16.61.57-24.95Z"/>
</svg>