<?xml version="1.0" encoding="UTF-8"?>
<svg id="Layer_1" data-name="Layer 1" xmlns="http://www.w3.org/2000/svg" viewBox="0 0 72 72">
  <defs>
    <style>
      .cls-1 {
        fill: #fff;
        stroke-width: 0px;
      }
    </style>
  </defs>
  <path class="cls-1" d="m35.28,18.47c.08-2.09-.97-4.04-1.98-5.86-1.07-1.92-2.14-3.84-3.2-5.76-.96-1.72-2.08-3.58-3.95-4.19-2.1-.69-4.34.46-6.12,1.77-1.41,1.03-2.73,2.2-3.82,3.56-3.56,4.42-4.39,10.56-3.45,16.15.95,5.59,3.48,10.78,6.11,15.81,3.58,6.84,7.44,13.64,12.81,19.18s12.43,9.79,20.12,10.38c2.68.2,5.88-.06,7.98-1.91,2.92-2.57,1.18-6.72-.59-9.48-1.79-2.79-3.36-6.16-5.47-8.68-3.42-4.1-6.95.99-10.66,1.33-2.81.26-4.95-2.36-6.47-4.73-1.9-2.97-3.71-5.99-5.52-9.02-1.22-2.05-2.48-4.18-2.73-6.56-.27-2.52.74-5.41,2.74-7.04,1.85-1.5,4.09-2.03,4.2-4.93Z"/>
</svg>